<mxfile host="app.diagrams.net" agent="Mozilla/5.0 (Windows NT 10.0; Win64; x64) AppleWebKit/537.36 (KHTML, like Gecko) Chrome/128.0.0.0 Safari/537.36 Edg/128.0.0.0" version="28.2.5">
  <diagram name="第 1 页" id="kJq01X_001uglYrOJBMa">
    <mxGraphModel dx="1807" dy="-129" grid="1" gridSize="10" guides="1" tooltips="1" connect="1" arrows="1" fold="1" page="1" pageScale="1" pageWidth="827" pageHeight="1169" background="none" math="0" shadow="0">
      <root>
        <mxCell id="0" />
        <mxCell id="1" parent="0" />
        <mxCell id="fixsXY8NAt6XQtkDfngQ-129" value="数据存储" style="whiteSpace=wrap;strokeWidth=2;" vertex="1" parent="1">
          <mxGeometry x="190" y="2850" width="667" height="114" as="geometry" />
        </mxCell>
        <mxCell id="fixsXY8NAt6XQtkDfngQ-130" value="分析工具" style="whiteSpace=wrap;strokeWidth=2;" vertex="1" parent="1">
          <mxGeometry x="860" y="3014" width="540" height="104" as="geometry" />
        </mxCell>
        <mxCell id="fixsXY8NAt6XQtkDfngQ-131" value="" style="whiteSpace=wrap;strokeWidth=2;" vertex="1" parent="1">
          <mxGeometry x="900" y="2849.5" width="642" height="114" as="geometry" />
        </mxCell>
        <mxCell id="fixsXY8NAt6XQtkDfngQ-132" value="后端服务" style="whiteSpace=wrap;strokeWidth=2;" vertex="1" parent="1">
          <mxGeometry x="160" y="2592" width="1382" height="104" as="geometry" />
        </mxCell>
        <mxCell id="fixsXY8NAt6XQtkDfngQ-133" value="用户" style="whiteSpace=wrap;strokeWidth=2;fillColor=#1ba1e2;strokeColor=#006EAF;fontColor=#ffffff;" vertex="1" parent="1">
          <mxGeometry x="472.5" y="2315" width="92" height="54" as="geometry" />
        </mxCell>
        <mxCell id="fixsXY8NAt6XQtkDfngQ-134" value="Web前端&#xa;Vue.js" style="whiteSpace=wrap;strokeWidth=2;fillColor=#1ba1e2;fontColor=#ffffff;strokeColor=#006EAF;" vertex="1" parent="1">
          <mxGeometry x="457" y="2464" width="123" height="78" as="geometry" />
        </mxCell>
        <mxCell id="fixsXY8NAt6XQtkDfngQ-135" value="认证服务" style="whiteSpace=wrap;strokeWidth=2;fillColor=#1ba1e2;fontColor=#ffffff;strokeColor=#006EAF;" vertex="1" parent="1">
          <mxGeometry x="543" y="2617" width="124" height="54" as="geometry" />
        </mxCell>
        <mxCell id="fixsXY8NAt6XQtkDfngQ-136" value="代码审查服务" style="whiteSpace=wrap;strokeWidth=2;fillColor=#1ba1e2;fontColor=#ffffff;strokeColor=#006EAF;" vertex="1" parent="1">
          <mxGeometry x="1022" y="2617" width="156" height="54" as="geometry" />
        </mxCell>
        <mxCell id="fixsXY8NAt6XQtkDfngQ-137" value="历史服务" style="whiteSpace=wrap;strokeWidth=2;fillColor=#1ba1e2;fontColor=#ffffff;strokeColor=#006EAF;" vertex="1" parent="1">
          <mxGeometry x="369" y="2617" width="124" height="54" as="geometry" />
        </mxCell>
        <mxCell id="fixsXY8NAt6XQtkDfngQ-138" value="报告服务" style="whiteSpace=wrap;strokeWidth=2;fillColor=#1ba1e2;fontColor=#ffffff;strokeColor=#006EAF;" vertex="1" parent="1">
          <mxGeometry x="195" y="2617" width="124" height="54" as="geometry" />
        </mxCell>
        <mxCell id="fixsXY8NAt6XQtkDfngQ-139" value="静态分析" style="whiteSpace=wrap;strokeWidth=2;fillColor=#1ba1e2;fontColor=#ffffff;strokeColor=#006EAF;" vertex="1" parent="1">
          <mxGeometry x="930" y="2896" width="124" height="54" as="geometry" />
        </mxCell>
        <mxCell id="fixsXY8NAt6XQtkDfngQ-168" value="" style="edgeStyle=orthogonalEdgeStyle;rounded=0;orthogonalLoop=1;jettySize=auto;html=1;strokeColor=#182E3E;" edge="1" parent="1" source="fixsXY8NAt6XQtkDfngQ-140" target="fixsXY8NAt6XQtkDfngQ-139">
          <mxGeometry relative="1" as="geometry" />
        </mxCell>
        <mxCell id="fixsXY8NAt6XQtkDfngQ-140" value="AI分析" style="whiteSpace=wrap;strokeWidth=2;fillColor=#1ba1e2;fontColor=#ffffff;strokeColor=#006EAF;" vertex="1" parent="1">
          <mxGeometry x="1168" y="2896" width="106" height="54" as="geometry" />
        </mxCell>
        <mxCell id="fixsXY8NAt6XQtkDfngQ-141" value="规则引擎" style="whiteSpace=wrap;strokeWidth=2;fillColor=#1ba1e2;fontColor=#ffffff;strokeColor=#006EAF;" vertex="1" parent="1">
          <mxGeometry x="1370" y="2896" width="124" height="54" as="geometry" />
        </mxCell>
        <mxCell id="fixsXY8NAt6XQtkDfngQ-142" value="Pylint" style="whiteSpace=wrap;strokeWidth=2;fillColor=#1ba1e2;fontColor=#ffffff;strokeColor=#006EAF;" vertex="1" parent="1">
          <mxGeometry x="895" y="3039" width="101" height="54" as="geometry" />
        </mxCell>
        <mxCell id="fixsXY8NAt6XQtkDfngQ-143" value="Checkstyle" style="whiteSpace=wrap;strokeWidth=2;fillColor=#1ba1e2;fontColor=#ffffff;strokeColor=#006EAF;" vertex="1" parent="1">
          <mxGeometry x="1046" y="3039" width="137" height="54" as="geometry" />
        </mxCell>
        <mxCell id="fixsXY8NAt6XQtkDfngQ-144" value="CodeBERT" style="whiteSpace=wrap;strokeWidth=2;fillColor=#1ba1e2;fontColor=#ffffff;strokeColor=#006EAF;" vertex="1" parent="1">
          <mxGeometry x="1233" y="3039" width="131" height="54" as="geometry" />
        </mxCell>
        <mxCell id="fixsXY8NAt6XQtkDfngQ-145" value="MySQL" style="shape=cylinder3;boundedLbl=1;backgroundOutline=1;size=10;strokeWidth=2;whiteSpace=wrap;fillColor=#0050ef;fontColor=#ffffff;strokeColor=#001DBC;" vertex="1" parent="1">
          <mxGeometry x="270" y="2875" width="61" height="64" as="geometry" />
        </mxCell>
        <mxCell id="fixsXY8NAt6XQtkDfngQ-146" value="Redis" style="shape=cylinder3;boundedLbl=1;backgroundOutline=1;size=10;strokeWidth=2;whiteSpace=wrap;fillColor=#0050ef;fontColor=#ffffff;strokeColor=#001DBC;" vertex="1" parent="1">
          <mxGeometry x="420.5" y="2878" width="52" height="61" as="geometry" />
        </mxCell>
        <mxCell id="fixsXY8NAt6XQtkDfngQ-147" value="文件存储" style="whiteSpace=wrap;strokeWidth=2;fillColor=#1ba1e2;fontColor=#ffffff;strokeColor=#006EAF;" vertex="1" parent="1">
          <mxGeometry x="640" y="2878" width="124" height="54" as="geometry" />
        </mxCell>
        <mxCell id="fixsXY8NAt6XQtkDfngQ-148" value="" style="curved=1;startArrow=none;endArrow=block;exitX=0.5;exitY=1;entryX=0.5;entryY=0;rounded=0;" edge="1" parent="1" source="fixsXY8NAt6XQtkDfngQ-133" target="fixsXY8NAt6XQtkDfngQ-134">
          <mxGeometry relative="1" as="geometry">
            <Array as="points" />
          </mxGeometry>
        </mxCell>
        <mxCell id="fixsXY8NAt6XQtkDfngQ-149" value="" style="curved=1;startArrow=none;endArrow=block;exitX=0.93;exitY=1;entryX=0.5;entryY=0;rounded=0;" edge="1" parent="1" source="fixsXY8NAt6XQtkDfngQ-134" target="fixsXY8NAt6XQtkDfngQ-135">
          <mxGeometry relative="1" as="geometry">
            <Array as="points">
              <mxPoint x="605" y="2567" />
            </Array>
          </mxGeometry>
        </mxCell>
        <mxCell id="fixsXY8NAt6XQtkDfngQ-150" value="" style="curved=1;startArrow=none;endArrow=block;exitX=0.99;exitY=0.62;entryX=0.5;entryY=0;rounded=0;" edge="1" parent="1" source="fixsXY8NAt6XQtkDfngQ-134" target="fixsXY8NAt6XQtkDfngQ-136">
          <mxGeometry relative="1" as="geometry">
            <Array as="points">
              <mxPoint x="942" y="2567" />
            </Array>
          </mxGeometry>
        </mxCell>
        <mxCell id="fixsXY8NAt6XQtkDfngQ-151" value="" style="curved=1;startArrow=none;endArrow=block;exitX=0.06;exitY=1;entryX=0.5;entryY=0;rounded=0;" edge="1" parent="1" source="fixsXY8NAt6XQtkDfngQ-134" target="fixsXY8NAt6XQtkDfngQ-137">
          <mxGeometry relative="1" as="geometry">
            <Array as="points">
              <mxPoint x="431" y="2567" />
            </Array>
          </mxGeometry>
        </mxCell>
        <mxCell id="fixsXY8NAt6XQtkDfngQ-152" value="" style="curved=1;startArrow=none;endArrow=block;exitX=0;exitY=0.69;entryX=0.5;entryY=0;rounded=0;" edge="1" parent="1" source="fixsXY8NAt6XQtkDfngQ-134" target="fixsXY8NAt6XQtkDfngQ-138">
          <mxGeometry relative="1" as="geometry">
            <Array as="points">
              <mxPoint x="257" y="2567" />
            </Array>
          </mxGeometry>
        </mxCell>
        <mxCell id="fixsXY8NAt6XQtkDfngQ-153" value="" style="curved=1;startArrow=none;endArrow=block;exitX=0.96;exitY=1;entryX=0.5;entryY=0;rounded=0;" edge="1" parent="1" source="fixsXY8NAt6XQtkDfngQ-136" target="fixsXY8NAt6XQtkDfngQ-139">
          <mxGeometry relative="1" as="geometry">
            <Array as="points">
              <mxPoint x="1081" y="2696" />
            </Array>
          </mxGeometry>
        </mxCell>
        <mxCell id="fixsXY8NAt6XQtkDfngQ-154" value="" style="curved=1;startArrow=none;endArrow=block;exitX=1;exitY=0.7;entryX=0.5;entryY=0;rounded=0;" edge="1" parent="1" source="fixsXY8NAt6XQtkDfngQ-136" target="fixsXY8NAt6XQtkDfngQ-140">
          <mxGeometry relative="1" as="geometry">
            <Array as="points">
              <mxPoint x="1318" y="2696" />
            </Array>
          </mxGeometry>
        </mxCell>
        <mxCell id="fixsXY8NAt6XQtkDfngQ-155" value="" style="curved=1;startArrow=none;endArrow=block;exitX=1;exitY=0.64;entryX=0.5;entryY=0;rounded=0;" edge="1" parent="1" source="fixsXY8NAt6XQtkDfngQ-136" target="fixsXY8NAt6XQtkDfngQ-141">
          <mxGeometry relative="1" as="geometry">
            <Array as="points">
              <mxPoint x="1483" y="2696" />
            </Array>
          </mxGeometry>
        </mxCell>
        <mxCell id="fixsXY8NAt6XQtkDfngQ-156" value="" style="curved=1;startArrow=none;endArrow=block;exitX=0.06;exitY=1;entryX=0.5;entryY=-0.01;rounded=0;" edge="1" parent="1" source="fixsXY8NAt6XQtkDfngQ-139" target="fixsXY8NAt6XQtkDfngQ-142">
          <mxGeometry relative="1" as="geometry">
            <Array as="points">
              <mxPoint x="946" y="2964" />
            </Array>
          </mxGeometry>
        </mxCell>
        <mxCell id="fixsXY8NAt6XQtkDfngQ-157" value="" style="curved=1;startArrow=none;endArrow=block;exitX=0.7;exitY=1;entryX=0.5;entryY=-0.01;rounded=0;" edge="1" parent="1" source="fixsXY8NAt6XQtkDfngQ-139" target="fixsXY8NAt6XQtkDfngQ-143">
          <mxGeometry relative="1" as="geometry">
            <Array as="points">
              <mxPoint x="1115" y="2964" />
            </Array>
          </mxGeometry>
        </mxCell>
        <mxCell id="fixsXY8NAt6XQtkDfngQ-158" value="" style="curved=1;startArrow=none;endArrow=block;exitX=0.5;exitY=1;entryX=0.5;entryY=-0.01;rounded=0;" edge="1" parent="1" source="fixsXY8NAt6XQtkDfngQ-140" target="fixsXY8NAt6XQtkDfngQ-144">
          <mxGeometry relative="1" as="geometry">
            <Array as="points" />
          </mxGeometry>
        </mxCell>
        <mxCell id="fixsXY8NAt6XQtkDfngQ-159" value="" style="curved=1;startArrow=none;endArrow=block;exitX=0.22;exitY=1;entryX=0.99;entryY=0.24;rounded=0;" edge="1" parent="1" source="fixsXY8NAt6XQtkDfngQ-135" target="fixsXY8NAt6XQtkDfngQ-145">
          <mxGeometry relative="1" as="geometry">
            <Array as="points">
              <mxPoint x="538" y="2696" />
              <mxPoint x="538" y="2746" />
            </Array>
          </mxGeometry>
        </mxCell>
        <mxCell id="fixsXY8NAt6XQtkDfngQ-160" value="" style="curved=1;startArrow=none;endArrow=block;exitX=0;exitY=0.68;entryX=0.99;entryY=0.18;rounded=0;" edge="1" parent="1" source="fixsXY8NAt6XQtkDfngQ-136" target="fixsXY8NAt6XQtkDfngQ-145">
          <mxGeometry relative="1" as="geometry">
            <Array as="points">
              <mxPoint x="518" y="2696" />
              <mxPoint x="518" y="2746" />
            </Array>
          </mxGeometry>
        </mxCell>
        <mxCell id="fixsXY8NAt6XQtkDfngQ-161" value="" style="curved=1;startArrow=none;endArrow=block;exitX=0.5;exitY=1;entryX=0.47;entryY=0;rounded=0;" edge="1" parent="1" source="fixsXY8NAt6XQtkDfngQ-137" target="fixsXY8NAt6XQtkDfngQ-145">
          <mxGeometry relative="1" as="geometry">
            <Array as="points">
              <mxPoint x="431" y="2746" />
            </Array>
          </mxGeometry>
        </mxCell>
        <mxCell id="fixsXY8NAt6XQtkDfngQ-162" value="" style="curved=1;startArrow=none;endArrow=block;exitX=0.5;exitY=1;entryX=-0.01;entryY=0.34;rounded=0;" edge="1" parent="1" source="fixsXY8NAt6XQtkDfngQ-138" target="fixsXY8NAt6XQtkDfngQ-145">
          <mxGeometry relative="1" as="geometry">
            <Array as="points">
              <mxPoint x="257" y="2746" />
            </Array>
          </mxGeometry>
        </mxCell>
        <mxCell id="fixsXY8NAt6XQtkDfngQ-163" value="" style="curved=1;startArrow=none;endArrow=block;exitX=0;exitY=0.81;entryX=1;entryY=0.09;rounded=0;" edge="1" parent="1" source="fixsXY8NAt6XQtkDfngQ-136" target="fixsXY8NAt6XQtkDfngQ-146">
          <mxGeometry relative="1" as="geometry">
            <Array as="points">
              <mxPoint x="700" y="2696" />
              <mxPoint x="700" y="2746" />
            </Array>
          </mxGeometry>
        </mxCell>
        <mxCell id="fixsXY8NAt6XQtkDfngQ-164" value="" style="curved=1;startArrow=none;endArrow=block;exitX=0.61;exitY=1;entryX=0.39;entryY=0;rounded=0;" edge="1" parent="1" source="fixsXY8NAt6XQtkDfngQ-135" target="fixsXY8NAt6XQtkDfngQ-146">
          <mxGeometry relative="1" as="geometry">
            <Array as="points">
              <mxPoint x="631" y="2696" />
              <mxPoint x="631" y="2746" />
            </Array>
          </mxGeometry>
        </mxCell>
        <mxCell id="fixsXY8NAt6XQtkDfngQ-165" value="" style="curved=1;startArrow=none;endArrow=block;exitX=0;exitY=0.96;entryX=0.5;entryY=0;rounded=0;" edge="1" parent="1" source="fixsXY8NAt6XQtkDfngQ-136" target="fixsXY8NAt6XQtkDfngQ-147">
          <mxGeometry relative="1" as="geometry">
            <Array as="points">
              <mxPoint x="779" y="2696" />
            </Array>
          </mxGeometry>
        </mxCell>
        <mxCell id="fixsXY8NAt6XQtkDfngQ-169" value="分析引擎" style="text;html=1;align=center;verticalAlign=middle;resizable=0;points=[];autosize=1;" vertex="1" parent="1">
          <mxGeometry x="1150" y="2860" width="70" height="30" as="geometry" />
        </mxCell>
      </root>
    </mxGraphModel>
  </diagram>
</mxfile>
